<svg width="101" height="101" viewBox="0 0 101 101" fill="none" xmlns="http://www.w3.org/2000/svg">
<path d="M82.113 15.963V85.334H73.889V15.963H82.113Z" fill="#2196F3"/>
<path d="M52.711 59.223H48.528C46.8805 59.223 45.545 60.5585 45.545 62.206C45.545 63.8535 46.8805 65.189 48.528 65.189H52.711C54.3585 65.189 55.694 63.8535 55.694 62.206C55.694 60.5585 54.3585 59.223 52.711 59.223Z" fill="#2196F3"/>
<path d="M20.118 65.189H24.301C25.9485 65.189 27.284 63.8535 27.284 62.206C27.284 60.5585 25.9485 59.223 24.301 59.223H20.118C18.4705 59.223 17.135 60.5585 17.135 62.206C17.135 63.8535 18.4705 65.189 20.118 65.189Z" fill="#2196F3"/>
<path d="M52.711 70.668H48.528C46.8805 70.668 45.545 72.0035 45.545 73.651C45.545 75.2985 46.8805 76.634 48.528 76.634H52.711C54.3585 76.634 55.694 75.2985 55.694 73.651C55.694 72.0035 54.3585 70.668 52.711 70.668Z" fill="#2196F3"/>
<path d="M20.118 76.635H24.301C25.9485 76.635 27.284 75.2995 27.284 73.652C27.284 72.0045 25.9485 70.669 24.301 70.669H20.118C18.4705 70.669 17.135 72.0045 17.135 73.652C17.135 75.2995 18.4705 76.635 20.118 76.635Z" fill="#2196F3"/>
<path d="M52.711 82.114H48.528C46.8805 82.114 45.545 83.4495 45.545 85.097C45.545 86.7445 46.8805 88.08 48.528 88.08H52.711C54.3585 88.08 55.694 86.7445 55.694 85.097C55.694 83.4495 54.3585 82.114 52.711 82.114Z" fill="#2196F3"/>
<path d="M20.118 88.08H24.301C25.9485 88.08 27.284 86.7445 27.284 85.097C27.284 83.4495 25.9485 82.114 24.301 82.114H20.118C18.4705 82.114 17.135 83.4495 17.135 85.097C17.135 86.7445 18.4705 88.08 20.118 88.08Z" fill="#2196F3"/>
<path d="M36.414 39.952C42.0843 39.952 46.681 35.3553 46.681 29.685C46.681 24.0147 42.0843 19.418 36.414 19.418C30.7437 19.418 26.147 24.0147 26.147 29.685C26.147 35.3553 30.7437 39.952 36.414 39.952Z" fill="#2196F3"/>
<path d="M70.764 19.337H65.258C64.705 19.337 64.258 19.785 64.258 20.337V44.116C64.258 44.668 64.705 45.116 65.258 45.116H70.764C71.317 45.116 71.764 44.668 71.764 44.116V20.337C71.764 19.785 71.317 19.337 70.764 19.337ZM69.764 43.116H66.258V21.337H69.764V43.116Z" fill="black"/>
<path d="M85.874 61.272C85.321 61.272 84.874 61.72 84.874 62.272V75.743C84.874 76.295 85.321 76.743 85.874 76.743C86.427 76.743 86.874 76.295 86.874 75.743V62.272C86.874 61.72 86.427 61.272 85.874 61.272Z" fill="black"/>
<path d="M85.874 77.438C85.321 77.438 84.874 77.886 84.874 78.438V81.952C84.874 82.504 85.321 82.952 85.874 82.952C86.427 82.952 86.874 82.504 86.874 81.952V78.438C86.874 77.886 86.427 77.438 85.874 77.438Z" fill="black"/>
<path d="M17.592 45.159H55.441C57.129 45.159 58.501 43.786 58.501 42.099V16.975C58.501 15.287 57.129 13.915 55.441 13.915H17.592C15.904 13.915 14.532 15.288 14.532 16.975V42.099C14.532 43.787 15.905 45.159 17.592 45.159ZM16.532 16.975C16.532 16.391 17.008 15.915 17.592 15.915H55.441C56.025 15.915 56.501 16.391 56.501 16.975V42.099C56.501 42.683 56.025 43.159 55.441 43.159H17.592C17.008 43.159 16.532 42.683 16.532 42.099V16.975Z" fill="black"/>
<path d="M38.608 58.074H34.425C32.229 58.074 30.442 59.861 30.442 62.057C30.442 64.253 32.229 66.04 34.425 66.04H38.608C40.804 66.04 42.591 64.253 42.591 62.057C42.591 59.861 40.804 58.074 38.608 58.074ZM38.608 64.04H34.425C33.331 64.04 32.442 63.15 32.442 62.057C32.442 60.964 33.332 60.074 34.425 60.074H38.608C39.701 60.074 40.591 60.964 40.591 62.057C40.591 63.15 39.701 64.04 38.608 64.04Z" fill="black"/>
<path d="M52.813 58.074H48.63C46.434 58.074 44.647 59.861 44.647 62.057C44.647 64.253 46.434 66.04 48.63 66.04H52.813C55.009 66.04 56.796 64.253 56.796 62.057C56.796 59.861 55.009 58.074 52.813 58.074ZM52.813 64.04H48.63C47.536 64.04 46.647 63.15 46.647 62.057C46.647 60.964 47.537 60.074 48.63 60.074H52.813C53.907 60.074 54.796 60.964 54.796 62.057C54.796 63.15 53.906 64.04 52.813 64.04Z" fill="black"/>
<path d="M24.402 58.074H20.219C18.023 58.074 16.236 59.861 16.236 62.057C16.236 64.253 18.023 66.04 20.219 66.04H24.402C26.598 66.04 28.385 64.253 28.385 62.057C28.385 59.861 26.598 58.074 24.402 58.074ZM24.402 64.04H20.219C19.125 64.04 18.236 63.15 18.236 62.057C18.236 60.964 19.126 60.074 20.219 60.074H24.402C25.496 60.074 26.385 60.964 26.385 62.057C26.385 63.15 25.495 64.04 24.402 64.04Z" fill="black"/>
<path d="M38.608 69.52H34.425C32.229 69.52 30.442 71.307 30.442 73.503C30.442 75.699 32.229 77.486 34.425 77.486H38.608C40.804 77.486 42.591 75.699 42.591 73.503C42.591 71.307 40.804 69.52 38.608 69.52ZM38.608 75.486H34.425C33.331 75.486 32.442 74.596 32.442 73.503C32.442 72.41 33.332 71.52 34.425 71.52H38.608C39.701 71.52 40.591 72.41 40.591 73.503C40.591 74.596 39.701 75.486 38.608 75.486Z" fill="black"/>
<path d="M52.813 69.52H48.63C46.434 69.52 44.647 71.307 44.647 73.503C44.647 75.699 46.434 77.486 48.63 77.486H52.813C55.009 77.486 56.796 75.699 56.796 73.503C56.796 71.307 55.009 69.52 52.813 69.52ZM52.813 75.486H48.63C47.536 75.486 46.647 74.596 46.647 73.503C46.647 72.41 47.537 71.52 48.63 71.52H52.813C53.907 71.52 54.796 72.41 54.796 73.503C54.796 74.596 53.906 75.486 52.813 75.486Z" fill="black"/>
<path d="M24.402 69.52H20.219C18.023 69.52 16.236 71.307 16.236 73.503C16.236 75.699 18.023 77.486 20.219 77.486H24.402C26.598 77.486 28.385 75.699 28.385 73.503C28.385 71.307 26.598 69.52 24.402 69.52ZM24.402 75.486H20.219C19.125 75.486 18.236 74.596 18.236 73.503C18.236 72.41 19.126 71.52 20.219 71.52H24.402C25.496 71.52 26.385 72.41 26.385 73.503C26.385 74.596 25.495 75.486 24.402 75.486Z" fill="black"/>
<path d="M38.608 80.965H34.425C32.229 80.965 30.442 82.752 30.442 84.948C30.442 87.144 32.229 88.931 34.425 88.931H38.608C40.804 88.931 42.591 87.144 42.591 84.948C42.591 82.752 40.804 80.965 38.608 80.965ZM38.608 86.931H34.425C33.331 86.931 32.442 86.041 32.442 84.948C32.442 83.855 33.332 82.965 34.425 82.965H38.608C39.701 82.965 40.591 83.855 40.591 84.948C40.591 86.041 39.701 86.931 38.608 86.931Z" fill="black"/>
<path d="M52.813 80.965H48.63C46.434 80.965 44.647 82.752 44.647 84.948C44.647 87.144 46.434 88.931 48.63 88.931H52.813C55.009 88.931 56.796 87.144 56.796 84.948C56.796 82.752 55.009 80.965 52.813 80.965ZM52.813 86.931H48.63C47.536 86.931 46.647 86.041 46.647 84.948C46.647 83.855 47.537 82.965 48.63 82.965H52.813C53.907 82.965 54.796 83.855 54.796 84.948C54.796 86.041 53.906 86.931 52.813 86.931Z" fill="black"/>
<path d="M24.402 80.965H20.219C18.023 80.965 16.236 82.752 16.236 84.948C16.236 87.144 18.023 88.931 20.219 88.931H24.402C26.598 88.931 28.385 87.144 28.385 84.948C28.385 82.752 26.598 80.965 24.402 80.965ZM24.402 86.931H20.219C19.125 86.931 18.236 86.041 18.236 84.948C18.236 83.855 19.126 82.965 20.219 82.965H24.402C25.496 82.965 26.385 83.855 26.385 84.948C26.385 86.041 25.495 86.931 24.402 86.931Z" fill="black"/>
<path d="M36.517 40.804C42.73 40.804 47.784 35.749 47.784 29.536C47.784 23.323 42.73 18.269 36.517 18.269C30.304 18.269 25.25 23.323 25.25 29.536C25.25 35.749 30.304 40.804 36.517 40.804ZM36.517 20.269C41.627 20.269 45.784 24.426 45.784 29.536C45.784 34.646 41.627 38.804 36.517 38.804C31.407 38.804 27.25 34.647 27.25 29.536C27.25 24.425 31.407 20.269 36.517 20.269Z" fill="black"/>
<path d="M33.501 34.852C33.696 35.047 33.952 35.145 34.208 35.145C34.464 35.145 34.72 35.047 34.915 34.852L42.145 27.623C42.536 27.232 42.536 26.6 42.145 26.209C41.754 25.818 41.122 25.818 40.731 26.209L34.208 32.731L31.497 30.02C31.106 29.629 30.474 29.629 30.083 30.02C29.692 30.411 29.692 31.043 30.083 31.434L33.501 34.852Z" fill="white"/>
<path d="M87.986 14.814H63.473V9.436C63.473 7.284 61.722 5.534 59.571 5.534H13.462C11.311 5.534 9.56 7.284 9.56 9.436V43.428C9.56 43.525 9.574 43.621 9.602 43.714L12.283 52.685V94.466C12.283 95.018 12.731 95.466 13.283 95.466H59.75C60.303 95.466 60.75 95.018 60.75 94.466V86.185H87.986C89.89 86.185 91.44 84.636 91.44 82.731V18.269C91.44 16.364 89.89 14.814 87.986 14.814ZM11.56 9.436C11.56 8.387 12.413 7.534 13.462 7.534H59.571C60.62 7.534 61.473 8.388 61.473 9.436V43.282L59.004 51.54H14.027L11.56 43.283V9.436ZM58.75 93.466H14.283V53.54H58.75V93.466ZM60.75 52.685L63.432 43.714C63.46 43.621 63.474 43.525 63.474 43.427V16.814H72.993V84.186H60.751V52.686L60.75 52.685ZM74.992 84.185V16.814H81.216V84.186L74.992 84.185ZM89.44 82.731C89.44 83.533 88.788 84.185 87.986 84.185H83.215V16.814H87.986C88.788 16.814 89.44 17.466 89.44 18.268V82.731Z" fill="black"/>
</svg>
